<mxfile host="app.diagrams.net" modified="2021-06-19T02:48:50.456Z" agent="5.0 (Linux; Android 10; CPH1937) AppleWebKit/537.36 (KHTML, like Gecko) Chrome/91.0.4472.101 Mobile Safari/537.36" etag="fFZbcHHBA6zEYcE6QaR9" version="14.8.0" type="github">
  <diagram id="CBJcSRbV2MQ1lQroXhxs" name="Page-1">
    <mxGraphModel dx="802" dy="1343" grid="1" gridSize="10" guides="1" tooltips="1" connect="1" arrows="1" fold="1" page="1" pageScale="1" pageWidth="827" pageHeight="1169" math="0" shadow="0">
      <root>
        <mxCell id="0" />
        <mxCell id="1" parent="0" />
        <mxCell id="EOFsWI7m7b9djhAbd4BA-14" value="Loại nước" style="shape=table;startSize=40;container=1;collapsible=1;childLayout=tableLayout;fixedRows=1;rowLines=0;fontStyle=1;align=center;resizeLast=1;" vertex="1" parent="1">
          <mxGeometry x="40" y="-1140" width="180" height="160" as="geometry" />
        </mxCell>
        <mxCell id="EOFsWI7m7b9djhAbd4BA-15" value="" style="shape=partialRectangle;collapsible=0;dropTarget=0;pointerEvents=0;fillColor=none;top=0;left=0;bottom=1;right=0;points=[[0,0.5],[1,0.5]];portConstraint=eastwest;" vertex="1" parent="EOFsWI7m7b9djhAbd4BA-14">
          <mxGeometry y="40" width="180" height="30" as="geometry" />
        </mxCell>
        <mxCell id="EOFsWI7m7b9djhAbd4BA-16" value="PK" style="shape=partialRectangle;connectable=0;fillColor=none;top=0;left=0;bottom=0;right=0;fontStyle=1;overflow=hidden;" vertex="1" parent="EOFsWI7m7b9djhAbd4BA-15">
          <mxGeometry width="30" height="30" as="geometry" />
        </mxCell>
        <mxCell id="EOFsWI7m7b9djhAbd4BA-17" value="Loại nước" style="shape=partialRectangle;connectable=0;fillColor=none;top=0;left=0;bottom=0;right=0;align=left;spacingLeft=6;fontStyle=5;overflow=hidden;" vertex="1" parent="EOFsWI7m7b9djhAbd4BA-15">
          <mxGeometry x="30" width="150" height="30" as="geometry" />
        </mxCell>
        <mxCell id="EOFsWI7m7b9djhAbd4BA-71" value="" style="shape=partialRectangle;collapsible=0;dropTarget=0;pointerEvents=0;fillColor=none;top=0;left=0;bottom=0;right=0;points=[[0,0.5],[1,0.5]];portConstraint=eastwest;" vertex="1" parent="EOFsWI7m7b9djhAbd4BA-14">
          <mxGeometry y="70" width="180" height="30" as="geometry" />
        </mxCell>
        <mxCell id="EOFsWI7m7b9djhAbd4BA-72" value="" style="shape=partialRectangle;connectable=0;fillColor=none;top=0;left=0;bottom=0;right=0;fontStyle=0;overflow=hidden;" vertex="1" parent="EOFsWI7m7b9djhAbd4BA-71">
          <mxGeometry width="30" height="30" as="geometry" />
        </mxCell>
        <mxCell id="EOFsWI7m7b9djhAbd4BA-73" value="Nhãn hiệu" style="shape=partialRectangle;connectable=0;fillColor=none;top=0;left=0;bottom=0;right=0;align=left;spacingLeft=6;fontStyle=0;overflow=hidden;" vertex="1" parent="EOFsWI7m7b9djhAbd4BA-71">
          <mxGeometry x="30" width="150" height="30" as="geometry" />
        </mxCell>
        <mxCell id="EOFsWI7m7b9djhAbd4BA-18" value="" style="shape=partialRectangle;collapsible=0;dropTarget=0;pointerEvents=0;fillColor=none;top=0;left=0;bottom=0;right=0;points=[[0,0.5],[1,0.5]];portConstraint=eastwest;" vertex="1" parent="EOFsWI7m7b9djhAbd4BA-14">
          <mxGeometry y="100" width="180" height="30" as="geometry" />
        </mxCell>
        <mxCell id="EOFsWI7m7b9djhAbd4BA-19" value="" style="shape=partialRectangle;connectable=0;fillColor=none;top=0;left=0;bottom=0;right=0;editable=1;overflow=hidden;" vertex="1" parent="EOFsWI7m7b9djhAbd4BA-18">
          <mxGeometry width="30" height="30" as="geometry" />
        </mxCell>
        <mxCell id="EOFsWI7m7b9djhAbd4BA-20" value="Giá bán lẻ" style="shape=partialRectangle;connectable=0;fillColor=none;top=0;left=0;bottom=0;right=0;align=left;spacingLeft=6;overflow=hidden;" vertex="1" parent="EOFsWI7m7b9djhAbd4BA-18">
          <mxGeometry x="30" width="150" height="30" as="geometry" />
        </mxCell>
        <mxCell id="EOFsWI7m7b9djhAbd4BA-40" value="Khách hàng" style="shape=table;startSize=30;container=1;collapsible=1;childLayout=tableLayout;fixedRows=1;rowLines=0;fontStyle=1;align=center;resizeLast=1;" vertex="1" parent="1">
          <mxGeometry x="620" y="-1140" width="180" height="140" as="geometry" />
        </mxCell>
        <mxCell id="EOFsWI7m7b9djhAbd4BA-41" value="" style="shape=partialRectangle;collapsible=0;dropTarget=0;pointerEvents=0;fillColor=none;top=0;left=0;bottom=1;right=0;points=[[0,0.5],[1,0.5]];portConstraint=eastwest;" vertex="1" parent="EOFsWI7m7b9djhAbd4BA-40">
          <mxGeometry y="30" width="180" height="30" as="geometry" />
        </mxCell>
        <mxCell id="EOFsWI7m7b9djhAbd4BA-42" value="PK" style="shape=partialRectangle;connectable=0;fillColor=none;top=0;left=0;bottom=0;right=0;fontStyle=1;overflow=hidden;" vertex="1" parent="EOFsWI7m7b9djhAbd4BA-41">
          <mxGeometry width="30" height="30" as="geometry" />
        </mxCell>
        <mxCell id="EOFsWI7m7b9djhAbd4BA-43" value="Mã khách hàng" style="shape=partialRectangle;connectable=0;fillColor=none;top=0;left=0;bottom=0;right=0;align=left;spacingLeft=6;fontStyle=5;overflow=hidden;" vertex="1" parent="EOFsWI7m7b9djhAbd4BA-41">
          <mxGeometry x="30" width="150" height="30" as="geometry" />
        </mxCell>
        <mxCell id="EOFsWI7m7b9djhAbd4BA-44" value="" style="shape=partialRectangle;collapsible=0;dropTarget=0;pointerEvents=0;fillColor=none;top=0;left=0;bottom=0;right=0;points=[[0,0.5],[1,0.5]];portConstraint=eastwest;" vertex="1" parent="EOFsWI7m7b9djhAbd4BA-40">
          <mxGeometry y="60" width="180" height="20" as="geometry" />
        </mxCell>
        <mxCell id="EOFsWI7m7b9djhAbd4BA-45" value="" style="shape=partialRectangle;connectable=0;fillColor=none;top=0;left=0;bottom=0;right=0;editable=1;overflow=hidden;" vertex="1" parent="EOFsWI7m7b9djhAbd4BA-44">
          <mxGeometry width="30" height="20" as="geometry" />
        </mxCell>
        <mxCell id="EOFsWI7m7b9djhAbd4BA-46" value="Địa chỉ" style="shape=partialRectangle;connectable=0;fillColor=none;top=0;left=0;bottom=0;right=0;align=left;spacingLeft=6;overflow=hidden;" vertex="1" parent="EOFsWI7m7b9djhAbd4BA-44">
          <mxGeometry x="30" width="150" height="20" as="geometry" />
        </mxCell>
        <mxCell id="EOFsWI7m7b9djhAbd4BA-47" value="" style="shape=partialRectangle;collapsible=0;dropTarget=0;pointerEvents=0;fillColor=none;top=0;left=0;bottom=0;right=0;points=[[0,0.5],[1,0.5]];portConstraint=eastwest;" vertex="1" parent="EOFsWI7m7b9djhAbd4BA-40">
          <mxGeometry y="80" width="180" height="30" as="geometry" />
        </mxCell>
        <mxCell id="EOFsWI7m7b9djhAbd4BA-48" value="" style="shape=partialRectangle;connectable=0;fillColor=none;top=0;left=0;bottom=0;right=0;editable=1;overflow=hidden;" vertex="1" parent="EOFsWI7m7b9djhAbd4BA-47">
          <mxGeometry width="30" height="30" as="geometry" />
        </mxCell>
        <mxCell id="EOFsWI7m7b9djhAbd4BA-49" value="Tên khách hàng" style="shape=partialRectangle;connectable=0;fillColor=none;top=0;left=0;bottom=0;right=0;align=left;spacingLeft=6;overflow=hidden;" vertex="1" parent="EOFsWI7m7b9djhAbd4BA-47">
          <mxGeometry x="30" width="150" height="30" as="geometry" />
        </mxCell>
        <mxCell id="EOFsWI7m7b9djhAbd4BA-50" value="" style="shape=partialRectangle;collapsible=0;dropTarget=0;pointerEvents=0;fillColor=none;top=0;left=0;bottom=0;right=0;points=[[0,0.5],[1,0.5]];portConstraint=eastwest;" vertex="1" parent="EOFsWI7m7b9djhAbd4BA-40">
          <mxGeometry y="110" width="180" height="30" as="geometry" />
        </mxCell>
        <mxCell id="EOFsWI7m7b9djhAbd4BA-51" value="" style="shape=partialRectangle;connectable=0;fillColor=none;top=0;left=0;bottom=0;right=0;editable=1;overflow=hidden;" vertex="1" parent="EOFsWI7m7b9djhAbd4BA-50">
          <mxGeometry width="30" height="30" as="geometry" />
        </mxCell>
        <mxCell id="EOFsWI7m7b9djhAbd4BA-52" value="Số điện thoại" style="shape=partialRectangle;connectable=0;fillColor=none;top=0;left=0;bottom=0;right=0;align=left;spacingLeft=6;overflow=hidden;" vertex="1" parent="EOFsWI7m7b9djhAbd4BA-50">
          <mxGeometry x="30" width="150" height="30" as="geometry" />
        </mxCell>
        <mxCell id="EOFsWI7m7b9djhAbd4BA-53" value="Hoá đơn " style="shape=table;startSize=30;container=1;collapsible=1;childLayout=tableLayout;fixedRows=1;rowLines=0;fontStyle=1;align=center;resizeLast=1;" vertex="1" parent="1">
          <mxGeometry x="330" y="-1150" width="180" height="150" as="geometry" />
        </mxCell>
        <mxCell id="EOFsWI7m7b9djhAbd4BA-54" value="" style="shape=partialRectangle;collapsible=0;dropTarget=0;pointerEvents=0;fillColor=none;top=0;left=0;bottom=0;right=0;points=[[0,0.5],[1,0.5]];portConstraint=eastwest;" vertex="1" parent="EOFsWI7m7b9djhAbd4BA-53">
          <mxGeometry y="30" width="180" height="30" as="geometry" />
        </mxCell>
        <mxCell id="EOFsWI7m7b9djhAbd4BA-55" value="PK,FK1" style="shape=partialRectangle;connectable=0;fillColor=none;top=0;left=0;bottom=0;right=0;fontStyle=1;overflow=hidden;" vertex="1" parent="EOFsWI7m7b9djhAbd4BA-54">
          <mxGeometry width="60" height="30" as="geometry" />
        </mxCell>
        <mxCell id="EOFsWI7m7b9djhAbd4BA-56" value="Loại nước" style="shape=partialRectangle;connectable=0;fillColor=none;top=0;left=0;bottom=0;right=0;align=left;spacingLeft=6;fontStyle=5;overflow=hidden;" vertex="1" parent="EOFsWI7m7b9djhAbd4BA-54">
          <mxGeometry x="60" width="120" height="30" as="geometry" />
        </mxCell>
        <mxCell id="EOFsWI7m7b9djhAbd4BA-57" value="" style="shape=partialRectangle;collapsible=0;dropTarget=0;pointerEvents=0;fillColor=none;top=0;left=0;bottom=1;right=0;points=[[0,0.5],[1,0.5]];portConstraint=eastwest;" vertex="1" parent="EOFsWI7m7b9djhAbd4BA-53">
          <mxGeometry y="60" width="180" height="20" as="geometry" />
        </mxCell>
        <mxCell id="EOFsWI7m7b9djhAbd4BA-58" value="PK,FK2" style="shape=partialRectangle;connectable=0;fillColor=none;top=0;left=0;bottom=0;right=0;fontStyle=1;overflow=hidden;" vertex="1" parent="EOFsWI7m7b9djhAbd4BA-57">
          <mxGeometry width="60" height="20" as="geometry" />
        </mxCell>
        <mxCell id="EOFsWI7m7b9djhAbd4BA-59" value="Mã khách hàng" style="shape=partialRectangle;connectable=0;fillColor=none;top=0;left=0;bottom=0;right=0;align=left;spacingLeft=6;fontStyle=5;overflow=hidden;" vertex="1" parent="EOFsWI7m7b9djhAbd4BA-57">
          <mxGeometry x="60" width="120" height="20" as="geometry" />
        </mxCell>
        <mxCell id="EOFsWI7m7b9djhAbd4BA-60" value="" style="shape=partialRectangle;collapsible=0;dropTarget=0;pointerEvents=0;fillColor=none;top=0;left=0;bottom=0;right=0;points=[[0,0.5],[1,0.5]];portConstraint=eastwest;" vertex="1" parent="EOFsWI7m7b9djhAbd4BA-53">
          <mxGeometry y="80" width="180" height="30" as="geometry" />
        </mxCell>
        <mxCell id="EOFsWI7m7b9djhAbd4BA-61" value="" style="shape=partialRectangle;connectable=0;fillColor=none;top=0;left=0;bottom=0;right=0;editable=1;overflow=hidden;" vertex="1" parent="EOFsWI7m7b9djhAbd4BA-60">
          <mxGeometry width="60" height="30" as="geometry" />
        </mxCell>
        <mxCell id="EOFsWI7m7b9djhAbd4BA-62" value="Row 3" style="shape=partialRectangle;connectable=0;fillColor=none;top=0;left=0;bottom=0;right=0;align=left;spacingLeft=6;overflow=hidden;" vertex="1" parent="EOFsWI7m7b9djhAbd4BA-60">
          <mxGeometry x="60" width="120" height="30" as="geometry" />
        </mxCell>
        <mxCell id="EOFsWI7m7b9djhAbd4BA-63" value="" style="shape=partialRectangle;collapsible=0;dropTarget=0;pointerEvents=0;fillColor=none;top=0;left=0;bottom=0;right=0;points=[[0,0.5],[1,0.5]];portConstraint=eastwest;" vertex="1" parent="EOFsWI7m7b9djhAbd4BA-53">
          <mxGeometry y="110" width="180" height="30" as="geometry" />
        </mxCell>
        <mxCell id="EOFsWI7m7b9djhAbd4BA-64" value="" style="shape=partialRectangle;connectable=0;fillColor=none;top=0;left=0;bottom=0;right=0;editable=1;overflow=hidden;" vertex="1" parent="EOFsWI7m7b9djhAbd4BA-63">
          <mxGeometry width="60" height="30" as="geometry" />
        </mxCell>
        <mxCell id="EOFsWI7m7b9djhAbd4BA-65" value="Row 4" style="shape=partialRectangle;connectable=0;fillColor=none;top=0;left=0;bottom=0;right=0;align=left;spacingLeft=6;overflow=hidden;" vertex="1" parent="EOFsWI7m7b9djhAbd4BA-63">
          <mxGeometry x="60" width="120" height="30" as="geometry" />
        </mxCell>
      </root>
    </mxGraphModel>
  </diagram>
</mxfile>
